<mxGraphModel><root><mxCell id="0"/><mxCell id="1" parent="0"/><mxCell id="2" value="User" style="whiteSpace=wrap;strokeWidth=2;verticalAlign=top;" vertex="1" parent="1"><mxGeometry x="177" width="679" height="460" as="geometry"/></mxCell><mxCell id="3" value="Login" style="ellipse;aspect=fixed;strokeWidth=2;whiteSpace=wrap;" vertex="1" parent="2"><mxGeometry x="318" y="33" width="53" height="53" as="geometry"/></mxCell><mxCell id="4" value="Dashboard" style="whiteSpace=wrap;strokeWidth=2;" vertex="1" parent="2"><mxGeometry x="300" y="154" width="89" height="33" as="geometry"/></mxCell><mxCell id="5" value="View Departments" style="rhombus;strokeWidth=2;whiteSpace=wrap;" vertex="1" parent="2"><mxGeometry x="43" y="259" width="180" height="180" as="geometry"/></mxCell><mxCell id="6" value="View Doctors" style="rhombus;strokeWidth=2;whiteSpace=wrap;" vertex="1" parent="2"><mxGeometry x="273" y="278" width="142" height="142" as="geometry"/></mxCell><mxCell id="7" value="View Appointments" style="rhombus;strokeWidth=2;whiteSpace=wrap;" vertex="1" parent="2"><mxGeometry x="466" y="256" width="187" height="187" as="geometry"/></mxCell><mxCell id="8" value="Success" style="curved=1;startArrow=none;endArrow=block;exitX=-2.84;exitY=1;entryX=-1.49;entryY=0.01;" edge="1" parent="2" source="3" target="4"><mxGeometry relative="1" as="geometry"><Array as="points"/></mxGeometry></mxCell><mxCell id="9" value="View" style="curved=1;startArrow=none;endArrow=block;exitX=-1.99;exitY=0.85;entryX=-0.48;entryY=0;" edge="1" parent="2" source="4" target="5"><mxGeometry relative="1" as="geometry"><Array as="points"><mxPoint x="133" y="222"/></Array></mxGeometry></mxCell><mxCell id="10" value="View" style="curved=1;startArrow=none;endArrow=block;exitX=-1.49;exitY=1.03;entryX=-0.74;entryY=0;" edge="1" parent="2" source="4" target="6"><mxGeometry relative="1" as="geometry"><Array as="points"/></mxGeometry></mxCell><mxCell id="11" value="View" style="curved=1;startArrow=none;endArrow=block;exitX=-0.99;exitY=0.84;entryX=-0.45;entryY=0;" edge="1" parent="2" source="4" target="7"><mxGeometry relative="1" as="geometry"><Array as="points"><mxPoint x="559" y="222"/></Array></mxGeometry></mxCell><mxCell id="12" value="Admin" style="whiteSpace=wrap;strokeWidth=2;verticalAlign=top;" vertex="1" parent="1"><mxGeometry y="510" width="1034" height="473" as="geometry"/></mxCell><mxCell id="13" value="Login" style="ellipse;aspect=fixed;strokeWidth=2;whiteSpace=wrap;" vertex="1" parent="12"><mxGeometry x="561" y="33" width="53" height="53" as="geometry"/></mxCell><mxCell id="14" value="Dashboard" style="whiteSpace=wrap;strokeWidth=2;" vertex="1" parent="12"><mxGeometry x="542" y="154" width="89" height="33" as="geometry"/></mxCell><mxCell id="15" value="Manage Departments" style="rhombus;strokeWidth=2;whiteSpace=wrap;" vertex="1" parent="12"><mxGeometry x="43" y="256" width="200" height="200" as="geometry"/></mxCell><mxCell id="16" value="Manage Doctors" style="rhombus;strokeWidth=2;whiteSpace=wrap;" vertex="1" parent="12"><mxGeometry x="293" y="275" width="162" height="162" as="geometry"/></mxCell><mxCell id="17" value="Manage Patients" style="rhombus;strokeWidth=2;whiteSpace=wrap;" vertex="1" parent="12"><mxGeometry x="504" y="273" width="165" height="165" as="geometry"/></mxCell><mxCell id="18" value="Generate Reports" style="rhombus;strokeWidth=2;whiteSpace=wrap;" vertex="1" parent="12"><mxGeometry x="720" y="269" width="174" height="174" as="geometry"/></mxCell><mxCell id="19" value="Logout" style="ellipse;aspect=fixed;strokeWidth=2;whiteSpace=wrap;" vertex="1" parent="12"><mxGeometry x="944" y="324" width="63" height="63" as="geometry"/></mxCell><mxCell id="20" value="Success" style="curved=1;startArrow=none;endArrow=block;exitX=0.49;exitY=-8.62;entryX=0.51;entryY=-15.44;" edge="1" parent="12" source="13" target="14"><mxGeometry relative="1" as="geometry"><Array as="points"/></mxGeometry></mxCell><mxCell id="21" value="View" style="curved=1;startArrow=none;endArrow=block;exitX=0;exitY=-14.78;entryX=0.5;entryY=-2.55;" edge="1" parent="12" source="14" target="15"><mxGeometry relative="1" as="geometry"><Array as="points"><mxPoint x="143" y="222"/></Array></mxGeometry></mxCell><mxCell id="22" value="View" style="curved=1;startArrow=none;endArrow=block;exitX=0;exitY=-14.61;entryX=0.5;entryY=-3.15;" edge="1" parent="12" source="14" target="16"><mxGeometry relative="1" as="geometry"><Array as="points"><mxPoint x="374" y="222"/></Array></mxGeometry></mxCell><mxCell id="23" value="View" style="curved=1;startArrow=none;endArrow=block;exitX=0.51;exitY=-14.43;entryX=0.5;entryY=-3.09;" edge="1" parent="12" source="14" target="17"><mxGeometry relative="1" as="geometry"><Array as="points"/></mxGeometry></mxCell><mxCell id="24" value="View" style="curved=1;startArrow=none;endArrow=block;exitX=1.01;exitY=-14.62;entryX=0.5;entryY=-2.93;" edge="1" parent="12" source="14" target="18"><mxGeometry relative="1" as="geometry"><Array as="points"><mxPoint x="807" y="222"/></Array></mxGeometry></mxCell><mxCell id="25" value="Logout" style="curved=1;startArrow=none;endArrow=block;exitX=1.01;exitY=-14.76;entryX=0.5;entryY=-8.09;" edge="1" parent="12" source="14" target="19"><mxGeometry relative="1" as="geometry"><Array as="points"><mxPoint x="975" y="222"/></Array></mxGeometry></mxCell></root></mxGraphModel>